<svg width="14" height="18" viewBox="0 0 14 18" fill="none" xmlns="http://www.w3.org/2000/svg">
<path fill-rule="evenodd" clip-rule="evenodd" d="M1.375 0.250001C1.20924 0.250001 1.05027 0.315849 0.933058 0.433059C0.815848 0.550269 0.75 0.709241 0.75 0.875001V17.125C0.75 17.2908 0.815848 17.4497 0.933058 17.5669C1.05027 17.6842 1.20924 17.75 1.375 17.75H12.625C12.7908 17.75 12.9497 17.6842 13.0669 17.5669C13.1842 17.4497 13.25 17.2908 13.25 17.125V5.25C13.2501 5.16787 13.2341 5.08651 13.2028 5.01059C13.1715 4.93466 13.1255 4.86565 13.0675 4.8075L8.6925 0.432501C8.63435 0.374499 8.56534 0.328526 8.48941 0.297211C8.41349 0.265897 8.33213 0.249854 8.25 0.250001H1.375ZM11.1163 4.625L8.875 2.38375V4.625H11.1163ZM6.375 5.875H3.25V4.625H6.375V5.875ZM10.75 9.625H3.25V8.375H10.75V9.625ZM3.25 13.375H10.75V12.125H3.25V13.375Z" fill="#0776DE"/>
</svg>
