<svg width="20" height="20" viewBox="0 0 20 20" fill="none" xmlns="http://www.w3.org/2000/svg">
<path d="M7.18758 7.08333H3.43758C3.21657 7.08333 3.00461 6.99553 2.84833 6.83925C2.69205 6.68297 2.60425 6.47101 2.60425 6.25V2.5C2.60425 2.27898 2.69205 2.06702 2.84833 1.91074C3.00461 1.75446 3.21657 1.66666 3.43758 1.66666C3.6586 1.66666 3.87056 1.75446 4.02684 1.91074C4.18312 2.06702 4.27091 2.27898 4.27091 2.5V5.41666H7.18758C7.4086 5.41666 7.62056 5.50446 7.77684 5.66074C7.93312 5.81702 8.02092 6.02898 8.02092 6.25C8.02092 6.47101 7.93312 6.68297 7.77684 6.83925C7.62056 6.99553 7.4086 7.08333 7.18758 7.08333Z" fill="#0776DE"/>
<path d="M17.5 10.8333C17.279 10.8333 17.067 10.7455 16.9107 10.5893C16.7545 10.433 16.6667 10.221 16.6667 10C16.6673 8.53295 16.1837 7.1067 15.2909 5.94259C14.3981 4.77847 13.1461 3.94158 11.729 3.56177C10.312 3.18196 8.80922 3.28048 7.4539 3.84204C6.09858 4.40359 4.9665 5.39679 4.23333 6.6675C4.12261 6.85879 3.94043 6.99825 3.72687 7.05522C3.51331 7.11218 3.28587 7.08198 3.09458 6.97125C2.9033 6.86052 2.76383 6.67834 2.70687 6.46478C2.6499 6.25122 2.68011 6.02379 2.79083 5.8325C3.70771 4.24436 5.12307 3.0032 6.81735 2.30157C8.51162 1.59994 10.3901 1.47706 12.1613 1.95199C13.9326 2.42692 15.4975 3.47312 16.6135 4.92827C17.7295 6.38343 18.334 8.16619 18.3333 10C18.3333 10.221 18.2455 10.433 18.0893 10.5893C17.933 10.7455 17.721 10.8333 17.5 10.8333ZM16.5625 18.3333C16.3415 18.3333 16.1295 18.2455 15.9732 18.0893C15.817 17.933 15.7292 17.721 15.7292 17.5V14.5833H12.8125C12.5915 14.5833 12.3795 14.4955 12.2232 14.3393C12.067 14.183 11.9792 13.971 11.9792 13.75C11.9792 13.529 12.067 13.317 12.2232 13.1607C12.3795 13.0045 12.5915 12.9167 12.8125 12.9167H16.5625C16.7835 12.9167 16.9955 13.0045 17.1518 13.1607C17.308 13.317 17.3958 13.529 17.3958 13.75V17.5C17.3958 17.721 17.308 17.933 17.1518 18.0893C16.9955 18.2455 16.7835 18.3333 16.5625 18.3333Z" fill="#0776DE"/>
<path d="M10.0001 18.3333C7.79062 18.3311 5.67229 17.4525 4.10996 15.8901C2.54764 14.3278 1.66895 12.2095 1.66675 10C1.66675 9.77899 1.75455 9.56703 1.91083 9.41075C2.06711 9.25447 2.27907 9.16667 2.50008 9.16667C2.7211 9.16667 2.93306 9.25447 3.08934 9.41075C3.24562 9.56703 3.33341 9.77899 3.33341 10C3.33278 11.4671 3.81638 12.8933 4.70917 14.0574C5.60196 15.2215 6.85402 16.0584 8.27105 16.4382C9.68808 16.818 11.1909 16.7195 12.5462 16.158C13.9015 15.5964 15.0336 14.6032 15.7667 13.3325C15.8216 13.2378 15.8945 13.1548 15.9814 13.0883C16.0683 13.0218 16.1675 12.973 16.2732 12.9448C16.379 12.9166 16.4892 12.9095 16.5977 12.9239C16.7062 12.9383 16.8108 12.9739 16.9055 13.0288C17.0002 13.0836 17.0832 13.1565 17.1497 13.2434C17.2163 13.3303 17.265 13.4295 17.2932 13.5352C17.3214 13.641 17.3285 13.7512 17.3141 13.8597C17.2997 13.9682 17.2641 14.0728 17.2092 14.1675C16.4765 15.4313 15.4252 16.4811 14.1603 17.212C12.8954 17.9429 11.461 18.3296 10.0001 18.3333Z" fill="#0776DE"/>
</svg>
