<svg width="103" height="186" viewBox="0 0 103 186" fill="none" xmlns="http://www.w3.org/2000/svg">
<path d="M1.51229 111.257V109.384H24.5039V111.249V113.468C24.5039 113.468 20.4078 116.075 20.4078 117.039C20.4078 118.485 24.5667 121.376 24.5667 121.376V125.712C24.5667 125.712 23.1804 126.435 23.1804 127.158C23.1804 127.88 24.5667 129.326 24.5667 129.326V133.662C24.5667 133.662 18.3284 136.881 18.3284 137.999C18.3284 139.116 24.5667 143.058 24.5667 143.058V147.394C24.5667 147.394 20.4078 150.285 20.4078 151.008C20.4078 151.731 24.5667 154.622 24.5667 154.622V158.958C24.5667 158.958 21.7941 161.126 21.7941 161.849C21.7941 162.572 24.5667 164.017 24.5667 164.017V169.799C20.1768 175.099 10.9812 185.555 9.31765 184.977C7.65412 184.399 2.38627 178.472 1 176.304L1.51229 111.257Z" fill="#0776DE" stroke="#0776DE"/>
<path d="M6 113.412C6 112.282 7 112 7.5 112C8.7 112 9 112.941 9 113.412V169.882C9 170.588 8.5 172 7.5 172C6.7 172 6.16667 170.588 6 169.882V113.412Z" fill="white" stroke="white"/>
<path d="M1.85155 27.7924L1.51123 109.384H24.5049C24.5049 80.3132 24.1582 31.8253 24.1582 27.7924C24.1582 22.7513 30.2018 22.7513 33.0536 22.7513H73.8175C79.8566 22.7513 81.0309 26.112 80.8631 27.7924V63.0801C80.8631 67.9195 76.1661 69.8015 73.8175 70.1376H33.0536V91.8143H66.2686C92.4381 91.8143 102 75.683 102 70.1376V27.2885C102 11.6612 85.8957 1.07475 77.3403 1.07475C68.1139 0.906709 45.3378 1.07446 28.021 1.07475C11.4135 1.07502 1.85155 20.7349 1.85155 27.7924Z" fill="#0776DE" stroke="#0776DE"/>
</svg>
