<svg width="15" height="14" viewBox="0 0 15 14" fill="none" xmlns="http://www.w3.org/2000/svg">
<path d="M7.49992 0.333336C11.1819 0.333336 14.1666 3.318 14.1666 7C14.1666 10.682 11.1819 13.6667 7.49992 13.6667C3.81792 13.6667 0.833252 10.682 0.833252 7C0.833252 3.318 3.81792 0.333336 7.49992 0.333336ZM7.49992 3C7.32311 3 7.15354 3.07024 7.02851 3.19526C6.90349 3.32029 6.83325 3.48986 6.83325 3.66667V7C6.83329 7.1768 6.90355 7.34634 7.02858 7.47134L9.02858 9.47134C9.15432 9.59277 9.32272 9.65997 9.49752 9.65845C9.67232 9.65693 9.83953 9.58682 9.96313 9.46321C10.0867 9.33961 10.1568 9.1724 10.1584 8.9976C10.1599 8.8228 10.0927 8.6544 9.97125 8.52867L8.16658 6.724V3.66667C8.16658 3.48986 8.09635 3.32029 7.97132 3.19526C7.8463 3.07024 7.67673 3 7.49992 3Z" fill="#0776DE"/>
</svg>
