<svg width="14" height="12" viewBox="0 0 14 12" fill="none" xmlns="http://www.w3.org/2000/svg">
    <path d="M12.3333 0.666668H1.66659C0.933252 0.666668 0.339919 1.26667 0.339919 2L0.333252 10C0.333252 10.7333 0.933252 11.3333 1.66659 11.3333H12.3333C13.0666 11.3333 13.6666 10.7333 13.6666 10V2C13.6666 1.26667 13.0666 0.666668 12.3333 0.666668ZM12.0666 3.5L7.35325 6.44667C7.13992 6.58 6.85992 6.58 6.64658 6.44667L1.93325 3.5C1.8664 3.46248 1.80786 3.41178 1.76118 3.35097C1.71449 3.29017 1.68063 3.22052 1.66164 3.14625C1.64264 3.07198 1.63892 2.99462 1.65069 2.91887C1.66246 2.84312 1.68948 2.77054 1.73011 2.70554C1.77074 2.64053 1.82413 2.58444 1.88707 2.54066C1.95 2.49689 2.02117 2.46634 2.09625 2.45087C2.17133 2.43539 2.24877 2.43531 2.32389 2.45063C2.399 2.46595 2.47023 2.49636 2.53325 2.54L6.99992 5.33333L11.4666 2.54C11.5296 2.49636 11.6008 2.46595 11.6759 2.45063C11.7511 2.43531 11.8285 2.43539 11.9036 2.45087C11.9787 2.46634 12.0498 2.49689 12.1128 2.54066C12.1757 2.58444 12.2291 2.64053 12.2697 2.70554C12.3104 2.77054 12.3374 2.84312 12.3491 2.91887C12.3609 2.99462 12.3572 3.07198 12.3382 3.14625C12.3192 3.22052 12.2853 3.29017 12.2387 3.35097C12.192 3.41178 12.1334 3.46248 12.0666 3.5Z" fill="#0776DE"/>
</svg>
